<?xml version="1.0" standalone="no"?>
<!DOCTYPE svg PUBLIC "-//W3C//DTD SVG 20010904//EN"
 "http://www.w3.org/TR/2001/REC-SVG-20010904/DTD/svg10.dtd">
<svg version="1.0" xmlns="http://www.w3.org/2000/svg"
 width="1500.000000pt" height="1500.000000pt" viewBox="0 0 1500.000000 1500.000000"
 preserveAspectRatio="xMidYMid meet">
<metadata>
Created by potrace 1.14, written by Peter Selinger 2001-2017
</metadata>
<g transform="translate(0.000000,1500.000000) scale(0.100000,-0.100000)"
fill="#000000" stroke="none">
<path d="M7478 14993 c12 -2 30 -2 40 0 9 3 -1 5 -23 4 -22 0 -30 -2 -17 -4z"/>
<path d="M14978 14993 c7 -3 16 -2 19 1 4 3 -2 6 -13 5 -11 0 -14 -3 -6 -6z"/>
<path d="M4345 13600 c-362 -76 -632 -319 -786 -707 -40 -102 -92 -308 -115
-458 -15 -98 -19 -179 -19 -440 0 -176 3 -346 8 -379 l7 -59 -47 7 c-107 14
-530 19 -662 7 -743 -66 -1182 -356 -1323 -875 -20 -71 -23 -105 -22 -281 0
-170 3 -215 22 -299 68 -303 223 -642 452 -986 42 -63 79 -121 83 -127 6 -9
-39 -36 -143 -88 -670 -335 -1059 -718 -1182 -1161 -18 -67 -22 -105 -22 -249
0 -144 4 -182 22 -249 122 -443 512 -826 1181 -1161 83 -41 151 -77 151 -79 0
-3 -40 -65 -89 -138 -508 -762 -617 -1425 -310 -1879 276 -410 858 -606 1665
-561 119 7 218 11 219 10 2 -2 -1 -43 -6 -93 -11 -133 -11 -545 2 -671 52
-528 249 -925 559 -1127 178 -115 313 -156 542 -164 174 -6 261 3 433 47 398
101 911 391 1385 784 259 214 778 716 1030 996 58 63 107 116 111 118 3 1 73
-71 155 -160 292 -318 638 -653 957 -927 177 -151 509 -385 729 -515 129 -75
359 -186 483 -231 422 -156 807 -154 1102 5 279 150 476 427 573 807 55 211
73 369 74 658 0 143 -3 308 -7 368 l-8 108 83 -8 c46 -5 209 -8 363 -8 216 0
310 5 410 19 653 91 1056 391 1177 873 32 128 32 402 -1 553 -70 327 -218 648
-472 1028 -38 56 -69 106 -68 110 0 4 62 37 137 74 786 383 1222 887 1222
1413 0 286 -127 565 -375 824 -215 224 -478 408 -852 593 l-142 71 63 91 c35
50 97 147 138 216 376 626 471 1165 279 1576 -178 380 -550 603 -1131 680
-140 18 -483 24 -698 11 l-132 -8 7 103 c15 193 9 602 -11 746 -30 232 -88
436 -168 597 -170 341 -442 549 -790 605 -110 18 -366 8 -487 -19 -402 -89
-906 -359 -1387 -743 -318 -254 -740 -655 -1078 -1026 -77 -84 -142 -151 -146
-150 -4 2 -56 57 -115 123 -152 169 -622 636 -798 794 -442 397 -896 702
-1301 875 -325 139 -673 190 -931 136z m395 -586 c297 -56 675 -254 1065 -558
127 -99 204 -163 465 -387 177 -152 807 -804 827 -856 3 -7 -40 -67 -94 -135
-55 -68 -150 -190 -213 -273 -62 -82 -118 -156 -124 -163 -9 -9 -53 5 -206 69
-387 160 -678 272 -990 379 -348 120 -939 282 -1296 356 l-131 27 -12 111
c-19 172 -25 524 -12 661 44 454 182 705 422 769 72 19 198 20 299 0z m5844
-12 c310 -112 444 -606 374 -1384 -6 -69 -14 -132 -18 -138 -4 -6 -96 -31
-206 -54 -317 -69 -631 -154 -973 -262 -96 -31 -183 -57 -193 -59 -86 -17
-650 -233 -1135 -436 -57 -23 -104 -41 -106 -38 -2 2 -46 60 -97 129 -84 112
-225 293 -317 406 l-34 42 140 155 c377 417 722 744 1115 1056 395 313 785
525 1087 590 123 27 277 24 363 -7z m-7159 -2035 l99 -12 38 -175 c72 -336
176 -724 279 -1038 28 -85 49 -155 47 -156 -1 -2 -70 -18 -153 -35 -356 -77
-803 -197 -1080 -290 -65 -23 -124 -41 -130 -41 -14 0 -167 218 -256 365 -90
149 -198 371 -238 492 -49 149 -64 241 -59 369 4 105 7 117 41 188 95 190 337
307 722 346 114 11 558 3 690 -13z m8979 -6 c350 -63 546 -195 602 -405 18
-67 18 -205 -1 -303 -35 -184 -157 -466 -297 -689 -89 -142 -231 -344 -242
-344 -5 0 -79 23 -165 51 -311 101 -771 223 -1091 290 -58 12 -107 23 -108 24
-2 2 24 90 57 197 118 378 212 730 277 1045 l27 131 61 8 c163 19 241 22 491
19 223 -2 291 -6 389 -24z m-1623 -336 c-60 -242 -143 -530 -218 -760 -30 -93
-56 -171 -57 -172 -1 -2 -40 4 -87 12 -309 54 -995 132 -1366 156 l-191 13
-90 132 -90 133 81 34 c191 80 398 158 827 314 437 158 1230 382 1238 349 1
-6 -20 -101 -47 -211z m-6410 170 c450 -112 777 -215 1329 -421 96 -36 207
-77 245 -92 83 -30 345 -139 351 -145 3 -2 -35 -62 -83 -133 l-88 -129 -240
-17 c-254 -18 -571 -49 -745 -73 -398 -54 -627 -87 -642 -91 -13 -4 -26 26
-72 163 -80 244 -140 447 -207 711 -63 249 -67 272 -46 272 8 0 97 -20 198
-45z m3269 -237 l141 -182 -143 -69 -143 -68 -140 68 c-77 37 -142 69 -144 70
-5 3 275 363 284 363 2 0 67 -82 145 -182z m380 -1258 c77 -39 487 -274 649
-372 l155 -93 69 -115 c187 -310 483 -842 627 -1129 37 -74 40 -87 30 -110
-55 -125 -365 -693 -548 -1006 -194 -332 -159 -294 -393 -432 -112 -67 -298
-174 -414 -239 l-210 -119 -490 0 -490 0 -210 119 c-270 153 -538 311 -592
348 -46 31 -79 81 -260 393 -198 342 -516 934 -516 960 0 6 48 104 108 216 59
112 130 247 158 299 60 115 284 504 395 688 l80 134 134 80 c115 70 552 322
650 375 47 26 168 31 628 28 389 -2 396 -2 440 -25z m-2353 -73 c-10 -7 -130
-83 -265 -170 -136 -87 -256 -167 -267 -176 -11 -10 -77 -57 -146 -104 l-126
-86 -87 215 c-48 119 -86 217 -84 219 13 10 871 112 953 113 34 1 37 -1 22
-11z m3863 -7 c102 -11 228 -25 280 -30 212 -22 480 -63 480 -74 0 -27 -164
-416 -174 -413 -6 3 -72 46 -146 97 -198 136 -347 235 -505 335 -77 49 -144
92 -149 97 -14 11 4 10 214 -12z m-5386 -328 c27 -70 89 -223 138 -341 49
-117 88 -214 86 -216 -120 -87 -422 -321 -535 -412 l-42 -34 -153 137 c-163
146 -713 692 -706 700 27 26 1044 286 1148 293 10 1 30 -39 64 -127z m6945 88
c306 -65 829 -201 950 -248 24 -8 10 -23 -255 -289 -153 -154 -348 -342 -432
-417 l-153 -137 -42 34 c-82 67 -324 254 -427 332 -58 43 -107 80 -109 81 -2
2 42 113 97 246 55 134 117 287 138 341 20 53 38 97 41 97 2 0 88 -18 192 -40z
m-8614 -630 c216 -238 505 -524 808 -798 27 -24 47 -47 45 -51 -2 -5 -57 -57
-123 -117 -186 -168 -553 -533 -702 -699 -75 -82 -143 -158 -153 -168 -16 -17
-23 -16 -161 48 -530 244 -884 530 -982 793 -30 79 -30 215 0 294 97 261 435
537 963 784 85 40 157 72 160 71 3 -1 69 -72 145 -157z m10400 56 c558 -270
874 -556 925 -836 45 -248 -174 -533 -616 -802 -99 -59 -457 -241 -515 -261
-12 -4 -44 25 -110 101 -141 160 -545 566 -738 742 l-171 155 43 39 c422 391
601 568 835 828 90 99 129 135 140 131 10 -3 103 -47 207 -97z m-8183 -766
l64 -135 -69 -143 -68 -142 -107 82 c-59 45 -142 110 -184 144 l-77 62 152
118 c213 166 211 164 218 156 4 -4 36 -68 71 -142z m5867 3 c91 -70 166 -133
167 -138 3 -8 -333 -276 -354 -282 -4 -1 -38 62 -75 140 l-68 143 68 140 c53
111 71 139 83 133 8 -4 89 -65 179 -136z m-6619 -643 c83 -66 214 -167 290
-225 l140 -106 -16 -37 c-58 -136 -149 -359 -199 -487 -33 -82 -60 -151 -61
-153 -4 -6 -385 78 -609 135 -213 53 -543 148 -553 157 -8 9 465 481 663 662
105 96 191 174 193 174 1 0 70 -54 152 -120z m7445 -50 c156 -140 665 -644
665 -660 0 -24 -548 -172 -964 -261 -104 -22 -190 -38 -191 -37 -2 2 -40 95
-85 208 -45 113 -106 263 -136 333 -31 71 -54 132 -52 137 2 4 73 61 158 126
85 64 213 164 284 221 127 102 130 103 150 85 12 -10 89 -78 171 -152z m-6277
-802 c131 -90 313 -210 404 -268 92 -58 160 -106 153 -108 -28 -7 -959 102
-973 113 -2 2 28 81 67 176 95 236 101 249 106 249 3 0 113 -73 243 -162z
m5100 -35 c44 -109 82 -205 84 -213 2 -12 -32 -20 -182 -41 -102 -15 -232 -32
-290 -38 -58 -6 -192 -20 -298 -31 -107 -12 -198 -20 -204 -18 -6 2 32 30 83
63 140 88 448 293 584 388 66 47 125 85 131 86 6 1 48 -88 92 -196z m-7553
-364 c277 -93 724 -213 1080 -290 83 -17 151 -32 152 -33 1 -1 -23 -80 -53
-176 -112 -354 -216 -744 -274 -1030 -18 -85 -35 -159 -39 -163 -15 -15 -310
-37 -511 -37 -457 0 -751 78 -920 244 -215 211 -152 619 178 1163 96 159 241
363 256 363 7 0 66 -18 131 -41z m9887 -59 c159 -219 311 -488 386 -682 141
-366 117 -630 -70 -779 -107 -85 -286 -152 -490 -184 -165 -26 -480 -30 -708
-10 -107 9 -196 18 -197 19 -1 1 -16 69 -33 152 -63 304 -175 722 -280 1047
-27 85 -50 159 -50 164 0 5 48 20 108 32 321 67 797 193 1087 289 83 28 156
49 164 49 8 -1 46 -45 83 -97z m-7767 -415 c143 -20 307 -42 365 -50 174 -24
490 -55 745 -73 l240 -17 88 -129 c49 -71 85 -132 80 -136 -11 -11 -312 -134
-443 -180 -267 -96 -528 -192 -555 -205 -114 -51 -814 -251 -1122 -320 -16 -4
-20 -1 -17 13 54 246 173 677 266 960 49 152 62 182 76 178 9 -3 134 -21 277
-41z m5803 -177 c88 -275 129 -418 192 -668 65 -261 65 -260 47 -260 -44 0
-477 114 -766 202 -336 101 -1313 461 -1354 498 -8 7 144 247 165 261 5 3 93
11 196 18 370 24 1085 106 1352 155 41 8 80 14 86 15 6 1 43 -99 82 -221z
m-2948 -395 c103 -49 139 -70 135 -81 -4 -12 -176 -238 -248 -326 l-24 -30
-94 120 c-141 177 -192 245 -187 249 3 3 262 130 275 134 1 1 65 -29 143 -66z
m-884 -440 c49 -65 149 -194 222 -286 73 -93 131 -174 129 -181 -3 -6 -78 -92
-168 -191 -541 -596 -1149 -1117 -1610 -1378 -462 -262 -830 -317 -1032 -153
-128 103 -218 311 -258 596 -18 126 -18 564 0 738 12 121 15 133 35 137 11 3
98 21 191 41 416 87 1065 276 1495 434 184 68 653 256 805 323 44 19 85 35 91
36 6 1 51 -52 100 -116z m1719 62 c807 -343 1592 -599 2300 -750 93 -20 173
-41 176 -47 15 -25 34 -312 34 -523 -1 -338 -39 -557 -130 -740 -106 -214
-243 -294 -480 -282 -480 26 -1179 477 -1970 1271 -211 211 -464 482 -500 534
-11 15 -1 32 72 122 46 58 148 187 225 288 77 101 145 181 152 178 6 -2 61
-25 121 -51z"/>
<path d="M7482 8543 c-7 -2 -17 -14 -23 -25 -9 -16 -5 -27 18 -60 24 -35 29
-53 32 -118 4 -99 -5 -117 -67 -126 -26 -4 -57 -10 -69 -15 -19 -7 -27 -3 -47
24 -43 57 -58 104 -54 176 3 63 2 66 -20 69 -33 5 -80 -17 -88 -40 -4 -14 5
-29 34 -56 42 -39 72 -113 72 -177 0 -27 -6 -34 -46 -54 -29 -13 -50 -19 -56
-13 -5 5 -13 35 -17 67 -11 81 -46 97 -102 47 -42 -38 -35 -73 19 -101 36 -18
70 -48 61 -54 -2 -2 -21 -16 -42 -31 -35 -26 -41 -27 -64 -15 -80 43 -156 144
-169 227 -3 23 -12 47 -20 53 -21 18 -71 0 -103 -36 -60 -68 -50 -107 31 -125
29 -6 71 -23 92 -38 67 -46 155 -182 118 -182 -13 0 -48 41 -66 78 -10 19 -24
32 -35 32 -28 0 -73 -57 -69 -89 3 -24 7 -26 66 -32 34 -3 65 -9 69 -13 4 -3
-3 -23 -15 -44 -20 -35 -24 -37 -69 -36 -27 1 -72 12 -101 24 -47 20 -67 37
-124 109 -10 11 -23 21 -28 21 -20 0 -59 -52 -66 -86 -10 -53 6 -63 89 -61 64
2 79 -2 134 -32 95 -51 103 -61 90 -115 -11 -50 -24 -56 -67 -31 -57 33 -103
4 -103 -65 0 -72 37 -92 119 -65 19 6 20 3 16 -60 -5 -74 9 -160 40 -248 l21
-58 -22 -23 c-42 -45 -119 -79 -192 -84 -80 -6 -94 -17 -84 -69 7 -41 62 -103
92 -103 28 0 38 11 67 72 29 62 67 99 133 131 l42 20 51 -49 51 -49 -28 -22
c-15 -12 -41 -25 -58 -29 -63 -13 -72 -48 -26 -95 49 -49 101 -32 101 33 0 13
9 37 20 55 l19 32 73 -33 c40 -19 88 -37 105 -41 18 -3 35 -11 39 -16 10 -17
-25 -114 -57 -152 -17 -20 -44 -44 -60 -52 -63 -33 -10 -109 71 -103 l35 3 1
75 c0 78 17 126 70 196 23 31 25 32 109 32 47 1 94 3 104 7 30 9 34 -12 12
-58 -12 -24 -21 -51 -21 -60 0 -30 37 -57 78 -57 80 0 105 57 57 128 -31 45
-32 69 -2 78 12 3 46 18 75 32 l52 25 43 -30 c54 -39 107 -125 107 -173 0 -64
32 -76 87 -34 49 37 43 72 -17 100 -54 26 -89 62 -124 129 l-27 50 58 53 c52
47 61 52 93 47 50 -8 151 -59 183 -93 15 -16 40 -53 56 -83 18 -35 35 -55 48
-57 51 -8 120 98 94 145 -8 17 -23 21 -78 25 -38 2 -85 12 -106 23 -50 24
-147 112 -147 134 1 9 12 29 25 46 l24 30 34 -33 c18 -17 40 -32 48 -32 26 0
59 44 59 77 0 47 -24 66 -72 58 l-39 -7 14 34 c7 18 19 59 27 92 8 32 20 61
29 64 23 9 119 -15 150 -38 16 -11 36 -20 45 -20 26 0 49 46 43 86 -11 69 -43
81 -105 39 -28 -19 -50 -25 -89 -25 l-53 0 0 59 0 60 34 -6 c28 -4 36 -1 46
17 15 29 0 88 -30 115 -20 18 -22 18 -49 2 -28 -16 -29 -16 -35 6 -9 34 -9 35
37 59 35 19 59 23 141 24 106 1 116 6 116 57 0 55 -48 117 -91 117 -22 0 -33
-10 -58 -50 -33 -53 -100 -104 -154 -116 -26 -5 -34 -2 -47 17 -8 13 -27 37
-42 54 -19 22 -25 38 -21 58 11 58 -54 109 -109 86 -36 -15 -78 1 -78 30 0 29
34 102 63 137 14 17 44 39 66 49 63 28 52 76 -22 104 -48 18 -67 0 -67 -62 0
-57 -23 -103 -91 -180 l-34 -39 -59 11 c-33 6 -75 11 -93 11 -30 0 -36 5 -49
36 -20 48 -10 134 22 193 31 56 31 79 -2 91 -26 10 -80 12 -102 3z"/>
<path d="M7711 8391 c-10 -6 -14 -32 -15 -85 -1 -80 9 -96 38 -55 8 12 30 32
50 45 45 31 46 58 4 84 -36 22 -55 24 -77 11z"/>
<path d="M6625 7347 c-13 -21 -14 -33 -6 -62 12 -43 37 -75 60 -75 9 0 36 20
60 45 23 24 51 47 62 50 44 14 12 41 -56 48 -27 3 -62 8 -77 12 -21 6 -29 2
-43 -18z"/>
<path d="M7935 7100 c-4 -6 9 -29 29 -50 23 -26 38 -54 42 -81 9 -55 26 -71
63 -58 37 13 65 53 57 84 -4 17 -15 24 -46 29 -28 4 -55 19 -84 46 -47 43 -51
45 -61 30z"/>
<path d="M3 7505 c0 -22 2 -30 4 -17 2 12 2 30 0 40 -3 9 -5 -1 -4 -23z"/>
<path d="M14970 7505 c0 -27 4 -35 18 -34 10 0 12 3 5 6 -7 2 -13 15 -13 28 0
13 6 26 13 28 7 3 5 6 -5 6 -14 1 -18 -7 -18 -34z"/>
<path d="M7460 13 c0 -5 16 -8 35 -8 19 0 35 3 35 8 0 4 -16 7 -35 7 -19 0
-35 -3 -35 -7z"/>
<path d="M14970 10 c0 -5 7 -7 15 -4 8 4 15 8 15 10 0 2 -7 4 -15 4 -8 0 -15
-4 -15 -10z"/>
</g>
</svg>
