<?xml version="1.0" standalone="no"?>
<!DOCTYPE svg PUBLIC "-//W3C//DTD SVG 20010904//EN"
 "http://www.w3.org/TR/2001/REC-SVG-20010904/DTD/svg10.dtd">
<svg version="1.0" xmlns="http://www.w3.org/2000/svg"
 width="1500.000000pt" height="1500.000000pt" viewBox="0 0 1500.000000 1500.000000"
 preserveAspectRatio="xMidYMid meet">
<metadata>
Created by potrace 1.14, written by Peter Selinger 2001-2017
</metadata>
<g transform="translate(0.000000,1500.000000) scale(0.100000,-0.100000)"
fill="#000000" stroke="none">
<path d="M7478 14993 c12 -2 30 -2 40 0 9 3 -1 5 -23 4 -22 0 -30 -2 -17 -4z"/>
<path d="M14978 14993 c7 -3 16 -2 19 1 4 3 -2 6 -13 5 -11 0 -14 -3 -6 -6z"/>
<path d="M7308 14395 c-232 -44 -453 -171 -668 -385 -197 -196 -361 -431 -533
-768 -54 -106 -102 -192 -105 -190 -4 2 -65 42 -137 89 -325 216 -623 358
-900 429 -163 41 -272 53 -437 47 -178 -6 -273 -29 -423 -102 -305 -148 -505
-421 -610 -830 -60 -236 -70 -332 -70 -690 0 -176 3 -346 8 -379 l7 -58 -37 5
c-93 15 -543 19 -678 8 -567 -50 -969 -241 -1178 -562 -121 -185 -168 -348
-168 -588 0 -209 38 -395 126 -626 77 -200 241 -504 379 -705 29 -41 55 -80
59 -87 5 -8 -52 -42 -174 -104 -335 -170 -583 -342 -779 -539 -184 -184 -304
-376 -367 -585 -25 -83 -27 -103 -27 -270 0 -167 2 -187 27 -270 129 -428 508
-799 1146 -1124 122 -62 179 -96 174 -104 -4 -7 -30 -46 -59 -87 -138 -201
-302 -505 -379 -705 -88 -231 -126 -417 -126 -626 0 -240 47 -403 168 -588
209 -321 611 -512 1178 -562 135 -11 585 -7 678 8 l37 5 -7 -58 c-5 -33 -8
-203 -8 -379 0 -358 10 -454 70 -690 105 -409 305 -682 610 -830 150 -73 245
-96 423 -102 165 -6 274 6 437 47 277 71 575 213 900 429 72 47 133 87 137 89
3 2 51 -84 105 -190 172 -337 336 -572 533 -768 288 -287 576 -413 904 -397
442 20 840 324 1202 917 52 86 214 394 226 430 3 11 37 -6 134 -71 336 -223
641 -369 919 -439 342 -87 646 -63 892 70 278 150 476 428 573 807 55 210 73
369 74 653 0 140 -2 306 -7 368 l-7 113 82 -8 c160 -15 642 -9 773 10 402 59
681 177 889 377 200 192 301 417 313 701 18 394 -141 841 -478 1347 -49 73
-89 136 -89 140 1 4 49 30 107 57 147 69 346 182 483 276 414 281 646 569 742
917 31 111 31 363 0 474 -96 348 -328 636 -742 917 -137 94 -336 207 -483 276
-58 28 -106 53 -107 57 0 4 40 67 89 140 337 506 496 953 478 1347 -12 284
-113 509 -313 701 -208 200 -487 318 -889 377 -131 19 -613 25 -773 10 l-82
-8 7 113 c5 62 7 228 7 368 -1 284 -19 443 -74 653 -131 510 -445 836 -879
912 -99 18 -288 19 -398 4 -323 -45 -700 -207 -1107 -478 -97 -65 -131 -82
-134 -71 -3 8 -42 87 -87 175 -333 653 -714 1033 -1147 1146 -107 28 -318 35
-430 14z m281 -590 c199 -47 413 -246 621 -577 63 -101 226 -414 267 -513 l20
-51 -56 -48 c-219 -189 -544 -511 -845 -839 -55 -59 -103 -106 -106 -105 -4 2
-56 57 -115 123 -217 240 -671 687 -859 847 l-28 24 74 159 c290 626 626 986
928 994 19 0 64 -6 99 -14z m-2767 -809 c179 -48 370 -134 587 -265 125 -76
355 -233 365 -250 3 -4 -18 -77 -45 -162 -101 -309 -210 -716 -280 -1044 -17
-82 -34 -153 -38 -157 -3 -4 -85 18 -181 48 -357 113 -749 217 -1051 279
l-137 28 -6 51 c-34 297 -33 676 4 885 62 354 189 546 401 606 81 23 258 14
381 -19z m5723 19 c132 -34 225 -118 300 -270 91 -184 128 -398 129 -740 1
-211 -17 -498 -33 -524 -4 -6 -74 -24 -156 -41 -301 -63 -733 -178 -1063 -285
-79 -26 -145 -45 -147 -43 -1 2 -19 80 -39 173 -77 350 -177 724 -276 1030
l-52 159 33 29 c49 41 279 195 382 256 231 135 467 231 646 261 80 13 214 11
276 -5z m-1750 -1217 c71 -245 222 -887 212 -894 -1 0 -78 -31 -172 -68 -93
-37 -246 -99 -338 -138 -93 -38 -169 -68 -171 -67 -170 226 -293 386 -359 469
-73 91 -83 107 -73 122 42 59 299 332 540 573 l280 280 18 -60 c10 -33 39
-131 63 -217z m-2263 20 c232 -230 568 -591 568 -609 0 -5 -60 -84 -132 -176
-73 -93 -173 -221 -222 -286 -49 -65 -94 -116 -100 -113 -6 2 -108 44 -226 93
-118 50 -266 109 -327 133 -62 24 -113 47 -113 52 0 17 81 383 120 544 39 159
157 580 167 597 2 4 8 7 13 7 4 0 118 -109 252 -242z m-3258 -839 c78 -6 166
-14 196 -17 l54 -7 38 -175 c72 -337 176 -724 279 -1038 28 -85 49 -155 47
-156 -1 -1 -61 -15 -133 -30 -345 -73 -748 -180 -1063 -283 -168 -55 -173 -56
-187 -37 -9 10 -73 105 -144 210 -257 383 -391 716 -391 972 0 152 43 257 141
346 196 177 626 257 1163 215z m8951 1 c480 -44 733 -192 785 -458 39 -198
-49 -509 -237 -841 -62 -110 -235 -373 -285 -435 l-24 -28 -174 57 c-315 102
-689 202 -1037 276 -84 18 -153 37 -153 42 0 5 23 79 50 164 104 322 217 744
279 1046 17 81 31 149 31 151 0 2 66 9 148 15 81 7 156 14 167 15 52 8 352 5
450 -4z m-7897 -175 c263 -63 456 -118 793 -225 l185 -60 -22 -144 c-12 -80
-35 -243 -50 -363 -15 -120 -28 -219 -28 -220 -1 0 -46 -6 -101 -13 -131 -15
-585 -79 -607 -86 -13 -4 -26 25 -72 163 -80 244 -140 447 -207 711 -61 243
-66 272 -48 272 6 0 77 -16 157 -35z m6497 3 c-16 -82 -108 -438 -150 -583
-37 -128 -163 -525 -169 -531 0 -1 -71 9 -156 22 -85 13 -247 35 -360 50 -113
14 -206 27 -207 28 -1 1 -11 76 -23 166 -24 189 -67 492 -76 532 -5 26 -4 27
148 77 312 102 920 270 981 271 16 0 18 -5 12 -32z m-3191 -242 c75 -96 136
-179 136 -184 0 -5 -63 -39 -141 -75 l-140 -67 -140 70 -140 71 48 62 c85 112
233 297 237 297 3 0 66 -78 140 -174z m-1550 -340 c114 -46 210 -87 212 -89 3
-3 -35 -63 -83 -133 l-88 -129 -155 -11 c-85 -7 -156 -11 -157 -10 -1 1 11 98
27 216 17 118 30 221 30 228 0 6 2 12 4 12 2 0 96 -38 210 -84z m3060 -138
c33 -237 33 -242 4 -235 -13 3 -80 9 -150 13 -69 3 -130 9 -135 13 -5 3 -47
62 -93 129 -65 98 -80 126 -69 133 12 7 309 131 382 158 16 7 24 5 29 -8 4 -9
18 -100 32 -203z m-1030 -840 c132 -72 526 -301 646 -375 64 -39 66 -42 181
-234 63 -107 171 -293 240 -414 l124 -220 5 -249 c3 -136 3 -361 0 -500 l-5
-251 -124 -220 c-69 -121 -177 -307 -240 -414 -115 -192 -117 -195 -181 -234
-120 -74 -514 -303 -650 -378 l-135 -74 -485 0 -485 1 -175 99 c-201 113 -481
277 -588 343 -45 27 -84 61 -101 86 -36 52 -239 399 -367 626 l-99 175 0 490
0 490 99 175 c128 227 331 574 367 626 34 50 140 116 654 410 l190 109 125 6
c69 4 293 5 499 3 l374 -3 131 -73z m-2968 -75 c-2 -10 -7 -65 -11 -123 -11
-189 1 -168 -142 -266 -69 -47 -129 -82 -133 -77 -4 4 -36 78 -70 163 -102
251 -102 250 -88 255 10 3 362 55 441 64 5 1 6 -7 3 -16z m4934 -18 c107 -15
200 -28 207 -30 8 -3 -16 -73 -72 -211 -47 -114 -87 -209 -89 -212 -3 -2 -63
35 -134 83 l-129 87 -7 111 c-4 62 -9 134 -13 160 -6 47 -5 48 18 43 13 -3
112 -17 219 -31z m-5956 -212 c24 -64 170 -424 230 -564 l15 -37 -162 -123
c-89 -68 -219 -170 -289 -226 l-127 -102 -158 141 c-87 77 -282 265 -432 416
l-275 275 40 14 c73 26 418 122 587 163 155 39 509 117 532 119 6 1 23 -34 39
-76z m7036 21 c313 -68 866 -216 887 -238 15 -15 -499 -524 -777 -769 l-74
-66 -41 33 c-94 77 -338 267 -432 336 -56 41 -102 78 -102 83 -1 4 30 80 67
170 38 89 100 240 137 335 l69 173 30 -6 c17 -4 123 -27 236 -51z m-8635 -669
c151 -165 448 -460 644 -640 l163 -149 -49 -46 c-446 -415 -616 -585 -863
-860 -46 -52 -91 -94 -99 -92 -35 8 -299 136 -414 200 -381 214 -610 427 -699
651 -31 79 -31 213 0 292 89 224 318 437 699 651 108 60 362 183 413 200 9 3
31 -13 55 -41 22 -25 89 -100 150 -166z m10393 90 c573 -285 886 -596 886
-880 0 -284 -313 -595 -886 -880 -113 -56 -220 -107 -236 -113 -30 -10 -32 -9
-119 91 -170 197 -681 703 -886 878 l-28 24 108 95 c144 126 697 679 807 807
86 100 88 101 118 91 16 -6 123 -57 236 -113z m-8226 -745 l64 -135 -68 -143
-68 -143 -108 82 c-59 46 -140 110 -180 142 -72 58 -73 60 -55 78 43 43 339
267 344 261 4 -4 36 -68 71 -142z m5866 3 c94 -74 172 -136 172 -138 0 -2 -81
-68 -181 -145 l-181 -141 -70 143 -69 143 68 141 c37 78 73 139 78 136 6 -3
88 -66 183 -139z m-6351 -852 l162 -123 -15 -37 c-54 -126 -205 -498 -229
-561 -15 -41 -29 -76 -30 -78 -4 -5 -371 75 -561 122 -168 42 -530 143 -583
164 -23 8 -11 23 250 284 151 151 345 339 432 416 l158 141 127 -102 c70 -56
200 -158 289 -226z m7128 204 c295 -266 726 -697 712 -712 -12 -11 -301 -94
-532 -153 -227 -57 -615 -144 -620 -138 -2 2 -50 120 -108 263 -58 143 -120
295 -138 338 -29 67 -31 80 -19 87 21 11 354 268 471 363 91 73 95 75 114 58
11 -9 65 -57 120 -106z m-6340 -771 c69 -47 125 -89 126 -92 2 -23 25 -307 25
-308 -2 -5 -442 59 -448 64 -4 4 27 90 68 192 42 102 80 195 84 208 5 12 12
22 15 22 3 0 62 -39 130 -86z m5213 -111 c44 -109 82 -205 84 -212 2 -12 -42
-21 -222 -47 -124 -18 -226 -31 -227 -30 -1 1 3 73 10 159 l12 156 125 85 c69
47 128 85 131 86 4 0 43 -89 87 -197z m-7510 -378 c305 -100 713 -208 1057
-281 72 -15 132 -29 133 -30 2 -1 -19 -71 -47 -156 -103 -314 -207 -701 -279
-1038 l-38 -175 -54 -7 c-415 -50 -818 -32 -1074 49 -406 128 -515 382 -360
847 55 163 179 403 318 610 141 212 158 235 169 236 4 0 83 -25 175 -55z
m9820 -12 c420 -574 587 -1070 454 -1353 -111 -237 -512 -365 -1087 -347 -153
5 -412 24 -422 31 -1 1 -16 69 -33 152 -63 303 -175 724 -280 1047 -27 85 -50
159 -50 164 0 5 69 24 153 42 348 74 756 183 1047 281 80 26 150 49 157 49 6
1 33 -29 61 -66z m-7758 -447 c135 -19 290 -40 345 -47 l101 -12 23 -186 c13
-102 35 -266 50 -364 l27 -178 -185 -59 c-337 -107 -530 -162 -793 -225 -169
-41 -168 -40 -168 -17 0 62 159 638 261 950 50 152 63 182 77 178 9 -3 127
-21 262 -40z m5818 -178 c88 -272 128 -414 192 -668 65 -260 65 -260 47 -260
-59 0 -676 170 -985 271 -152 50 -153 51 -148 77 9 40 52 343 76 532 12 90 22
165 23 166 1 1 94 14 207 28 157 20 454 64 511 75 3 1 38 -99 77 -221z m-4553
44 l100 -7 88 -129 c48 -70 86 -130 83 -133 -7 -7 -419 -174 -421 -171 -2 2
-15 91 -29 198 -14 107 -29 210 -31 227 l-6 33 58 -6 c32 -3 103 -9 158 -12z
m3145 -7 c0 -27 -46 -373 -55 -412 l-5 -23 -53 21 c-119 47 -343 140 -356 148
-11 7 4 35 69 133 46 67 85 125 87 128 3 3 68 10 146 16 78 6 148 12 155 12 7
1 12 -9 12 -23z m-1536 -434 c75 -35 136 -68 136 -73 0 -10 -268 -358 -276
-358 -4 0 -152 185 -237 297 l-48 62 138 70 c76 39 141 69 144 68 4 -1 68 -31
143 -66z m-888 -438 c49 -65 149 -193 222 -286 72 -92 132 -171 132 -176 0
-34 -799 -856 -824 -848 -23 8 -183 606 -262 975 -20 95 -35 174 -33 176 2 2
112 46 244 99 132 53 281 114 330 136 50 22 93 40 96 40 3 1 46 -52 95 -116z
m1680 78 c49 -21 199 -82 334 -136 135 -54 246 -99 247 -99 1 -1 -14 -78 -34
-171 -46 -221 -148 -627 -209 -832 l-48 -162 -95 88 c-179 166 -670 678 -726
758 -11 16 1 36 104 164 64 81 163 210 221 287 58 78 108 141 111 142 3 0 46
-17 95 -39z m-2987 -558 c59 -293 187 -777 290 -1092 27 -85 48 -158 45 -162
-10 -17 -240 -174 -365 -250 -306 -185 -568 -284 -784 -296 -61 -3 -122 -1
-157 6 -226 47 -364 244 -428 612 -37 209 -38 588 -4 885 l6 51 137 28 c302
62 774 188 1096 294 66 21 125 40 130 40 6 1 21 -52 34 -116z m4285 71 c328
-106 761 -222 1061 -284 82 -17 152 -35 156 -41 16 -26 34 -313 34 -524 -1
-338 -40 -557 -130 -740 -106 -214 -243 -294 -480 -282 -209 11 -456 101 -742
268 -103 61 -333 215 -382 256 l-33 29 52 159 c100 310 205 703 281 1053 18
83 35 152 37 152 2 0 68 -21 146 -46z m-2128 -621 c301 -328 626 -650 845
-839 l56 -48 -20 -51 c-41 -99 -204 -412 -267 -513 -265 -421 -539 -626 -780
-584 -70 13 -165 54 -235 102 -209 144 -450 483 -642 904 l-65 141 29 24 c192
163 699 665 883 874 47 53 88 97 91 97 3 0 50 -48 105 -107z"/>
<path d="M7482 8524 c-28 -20 -28 -26 6 -65 26 -32 27 -37 27 -152 0 -103 2
-120 18 -128 9 -6 22 -7 28 -3 7 4 10 1 7 -7 -7 -21 -47 -23 -69 -3 -14 13
-28 15 -60 10 -62 -10 -193 -63 -223 -91 l-27 -25 -24 53 c-14 28 -25 71 -25
93 0 49 -18 61 -59 40 -64 -33 -64 -74 -2 -98 25 -10 48 -30 64 -54 l24 -39
-39 -25 c-21 -13 -38 -32 -38 -41 0 -26 -33 -61 -70 -73 -24 -8 -42 -27 -70
-72 -41 -69 -85 -197 -74 -215 11 -19 -53 -3 -86 21 -54 39 -90 20 -93 -48 -2
-69 43 -93 96 -51 15 11 44 22 64 25 33 4 35 3 14 -6 -23 -10 -23 -11 -18
-133 4 -117 25 -212 50 -228 17 -12 -74 -98 -136 -129 -46 -23 -74 -30 -119
-30 -73 0 -82 -15 -47 -78 30 -54 70 -82 93 -63 8 7 18 28 22 46 8 45 73 106
169 157 85 46 101 70 70 102 -15 15 -15 16 2 16 46 0 59 -59 18 -86 -34 -22
-32 -36 14 -77 83 -74 200 -123 277 -114 23 2 49 0 59 -6 26 -14 141 -19 198
-9 l47 9 0 -36 c0 -20 -9 -49 -20 -66 -38 -58 -19 -95 50 -95 17 0 40 5 51 10
24 13 25 62 2 81 -31 26 -62 142 -33 124 14 -9 135 50 203 99 65 47 137 113
137 126 0 4 25 33 55 65 30 31 53 61 50 66 -18 29 45 -7 75 -44 20 -23 31 -28
48 -23 29 9 51 78 32 101 -14 17 -43 19 -71 5 -12 -7 -30 -7 -51 -1 -18 5 -26
10 -18 10 20 1 50 71 57 132 5 44 9 49 39 59 43 14 138 -2 177 -31 47 -34 62
-23 62 46 0 55 -2 60 -23 63 -15 2 -33 -5 -48 -19 -26 -25 -106 -36 -168 -25
-33 6 -35 8 -24 31 13 29 -3 143 -28 203 -14 35 -14 37 8 54 68 54 170 83 235
66 38 -9 47 -8 60 5 14 14 15 22 5 55 -17 55 -49 94 -76 90 -13 -2 -30 -20
-45 -47 -29 -53 -87 -91 -192 -126 -92 -31 -107 -44 -90 -82 15 -34 8 -40 -18
-14 -33 33 -27 58 19 81 22 11 40 24 40 28 0 5 -19 29 -43 54 -43 46 -43 47
-20 57 30 14 29 41 -2 75 -43 46 -95 30 -95 -30 0 -18 -4 -35 -9 -39 -6 -3 -9
7 -8 22 2 24 -5 31 -46 51 -59 28 -145 50 -217 56 -52 4 -54 5 -68 43 -9 25
-12 66 -10 120 4 69 9 88 30 119 31 43 28 60 -14 68 -46 9 -61 7 -86 -10z
m-222 -589 c-10 -12 -16 -13 -28 -3 -13 11 -11 13 9 19 30 7 35 3 19 -16z
m501 -65 c5 0 9 -4 9 -10 0 -12 -10 -13 -29 -1 -9 6 -11 15 -6 27 8 18 8 18
12 2 3 -10 9 -18 14 -18z m-636 -260 c8 -14 -14 -52 -26 -44 -6 4 -6 11 1 19
7 8 9 19 5 25 -3 5 -2 10 4 10 5 0 13 -4 16 -10z m968 -10 c-13 -6 -23 -18
-23 -30 0 -11 -4 -20 -10 -20 -5 0 -10 14 -10 30 0 27 3 30 33 29 29 0 30 -1
10 -9z m-173 -177 c-8 -3 -21 -12 -27 -21 -11 -14 -13 -13 -13 6 0 18 6 22 28
21 15 0 20 -3 12 -6z m-311 -265 c0 -13 -3 -17 -6 -10 -2 6 -13 12 -24 12 -10
0 -19 5 -19 10 0 6 11 10 25 10 19 0 25 -5 24 -22z"/>
<path d="M7911 8471 c-10 -6 -12 -20 -8 -43 6 -42 -15 -92 -71 -166 -37 -49
-45 -82 -21 -82 5 0 12 0 15 -1 4 0 17 25 29 56 30 74 68 121 116 145 45 23
48 38 17 67 -29 26 -59 35 -77 24z"/>
<path d="M7192 8444 c-29 -20 -28 -42 3 -56 29 -13 60 -72 76 -146 11 -52 31
-74 49 -56 5 5 -6 38 -26 79 -33 65 -35 75 -30 133 l7 62 -28 0 c-16 0 -39 -7
-51 -16z"/>
<path d="M7705 8381 c-4 -7 -3 -24 1 -39 11 -39 11 -45 2 -69 -10 -31 4 -29
40 5 16 15 39 34 52 42 22 15 22 16 3 38 -21 26 -86 41 -98 23z"/>
<path d="M6768 8295 c-83 -56 -77 -125 11 -125 41 0 104 -51 169 -135 30 -39
61 -72 69 -73 17 -4 55 27 47 39 -3 5 -29 24 -57 43 -87 56 -157 147 -157 204
0 39 -15 72 -33 72 -7 0 -29 -11 -49 -25z"/>
<path d="M6844 8032 c-26 -17 -47 -91 -26 -93 4 0 35 -2 70 -3 l63 -4 -20 22
c-11 12 -26 36 -32 54 -11 31 -31 40 -55 24z"/>
<path d="M6581 7967 c-10 -13 -41 -81 -41 -91 0 -2 7 -11 15 -19 12 -12 22
-13 52 -5 46 13 92 0 184 -50 57 -31 69 -34 83 -23 30 25 17 38 -46 50 -83 16
-164 65 -189 114 -20 39 -39 46 -58 24z"/>
<path d="M8192 7837 c-16 -19 5 -105 29 -118 32 -17 52 7 46 54 -8 60 -49 95
-75 64z"/>
<path d="M6633 7349 c-17 -17 -16 -40 3 -89 22 -54 47 -52 103 5 24 25 48 45
53 45 4 0 8 6 8 14 0 10 -16 16 -52 19 -29 3 -64 8 -78 12 -15 4 -30 1 -37 -6z"/>
<path d="M8002 7194 c-35 -24 -27 -37 41 -63 114 -44 179 -99 207 -174 22 -60
50 -61 90 -5 22 30 30 51 28 73 -3 29 -4 30 -60 31 -70 2 -120 25 -212 99 -38
30 -69 55 -70 55 -1 0 -12 -7 -24 -16z"/>
<path d="M7946 7092 c-3 -6 1 -15 10 -22 31 -27 58 -75 64 -114 6 -51 37 -60
75 -22 45 45 30 86 -31 86 -15 0 -42 16 -68 40 -24 23 -47 37 -50 32z"/>
<path d="M7795 7011 c-3 -5 13 -25 35 -43 56 -46 100 -118 108 -175 9 -62 30
-67 78 -19 30 30 34 39 24 51 -7 8 -21 15 -31 15 -27 0 -95 65 -132 126 -23
39 -38 54 -54 54 -12 0 -24 -4 -28 -9z"/>
<path d="M6990 6985 c-7 -8 -31 -20 -54 -27 -22 -6 -46 -15 -52 -20 -31 -23
30 -91 75 -86 22 3 27 9 32 49 4 26 15 58 24 73 15 22 15 26 2 26 -8 0 -20 -7
-27 -15z"/>
<path d="M7275 6928 c-2 -7 -9 -35 -15 -62 -18 -83 -65 -157 -111 -177 -39
-15 -37 -44 4 -69 62 -38 106 -19 86 39 -15 41 2 101 47 178 39 64 41 78 14
93 -15 8 -21 8 -25 -2z"/>
<path d="M3 7505 c0 -22 2 -30 4 -17 2 12 2 30 0 40 -3 9 -5 -1 -4 -23z"/>
<path d="M14970 7505 c0 -27 4 -35 18 -34 10 0 12 3 5 6 -7 2 -13 15 -13 28 0
13 6 26 13 28 7 3 5 6 -5 6 -14 1 -18 -7 -18 -34z"/>
<path d="M7460 13 c0 -5 16 -8 35 -8 19 0 35 3 35 8 0 4 -16 7 -35 7 -19 0
-35 -3 -35 -7z"/>
<path d="M14970 10 c0 -5 7 -7 15 -4 8 4 15 8 15 10 0 2 -7 4 -15 4 -8 0 -15
-4 -15 -10z"/>
</g>
</svg>
